<mxfile host="app.diagrams.net" modified="2020-09-21T17:35:58.508Z" agent="5.0 (Windows NT 10.0; Win64; x64) AppleWebKit/537.36 (KHTML, like Gecko) Chrome/85.0.4183.102 Safari/537.36" etag="v7XUaOvmv2awDHbO019G" version="13.7.3" type="github">
  <diagram id="xCLukGvDAJt-tAPxAYAw" name="Page-1">
    <mxGraphModel dx="1038" dy="580" grid="1" gridSize="10" guides="1" tooltips="1" connect="1" arrows="1" fold="1" page="1" pageScale="1" pageWidth="850" pageHeight="1100" math="0" shadow="0">
      <root>
        <mxCell id="0" />
        <mxCell id="1" parent="0" />
        <mxCell id="HwkptVnZjSKuyg0B9DK_-3" value="" style="edgeStyle=orthogonalEdgeStyle;rounded=0;orthogonalLoop=1;jettySize=auto;html=1;" parent="1" source="HwkptVnZjSKuyg0B9DK_-1" target="HwkptVnZjSKuyg0B9DK_-2" edge="1">
          <mxGeometry relative="1" as="geometry" />
        </mxCell>
        <mxCell id="HwkptVnZjSKuyg0B9DK_-1" value="start" style="ellipse;whiteSpace=wrap;html=1;" parent="1" vertex="1">
          <mxGeometry x="150" y="40" width="120" height="80" as="geometry" />
        </mxCell>
        <mxCell id="HwkptVnZjSKuyg0B9DK_-5" value="" style="edgeStyle=orthogonalEdgeStyle;rounded=0;orthogonalLoop=1;jettySize=auto;html=1;" parent="1" source="HwkptVnZjSKuyg0B9DK_-2" target="HwkptVnZjSKuyg0B9DK_-4" edge="1">
          <mxGeometry relative="1" as="geometry" />
        </mxCell>
        <mxCell id="HwkptVnZjSKuyg0B9DK_-2" value="get Starting Balance" style="shape=parallelogram;perimeter=parallelogramPerimeter;whiteSpace=wrap;html=1;fixedSize=1;" parent="1" vertex="1">
          <mxGeometry x="150" y="150" width="120" height="60" as="geometry" />
        </mxCell>
        <mxCell id="HwkptVnZjSKuyg0B9DK_-6" value="no" style="edgeStyle=orthogonalEdgeStyle;rounded=0;orthogonalLoop=1;jettySize=auto;html=1;exitX=1;exitY=0.5;exitDx=0;exitDy=0;entryX=1;entryY=0;entryDx=0;entryDy=0;" parent="1" source="HwkptVnZjSKuyg0B9DK_-4" target="HwkptVnZjSKuyg0B9DK_-2" edge="1">
          <mxGeometry relative="1" as="geometry">
            <Array as="points">
              <mxPoint x="380" y="280" />
              <mxPoint x="380" y="150" />
            </Array>
          </mxGeometry>
        </mxCell>
        <mxCell id="HwkptVnZjSKuyg0B9DK_-8" value="yes" style="edgeStyle=orthogonalEdgeStyle;rounded=0;orthogonalLoop=1;jettySize=auto;html=1;" parent="1" source="HwkptVnZjSKuyg0B9DK_-4" target="HwkptVnZjSKuyg0B9DK_-7" edge="1">
          <mxGeometry relative="1" as="geometry" />
        </mxCell>
        <mxCell id="HwkptVnZjSKuyg0B9DK_-4" value="is SB a#?" style="rhombus;whiteSpace=wrap;html=1;" parent="1" vertex="1">
          <mxGeometry x="170" y="240" width="80" height="80" as="geometry" />
        </mxCell>
        <mxCell id="HwkptVnZjSKuyg0B9DK_-11" value="" style="edgeStyle=orthogonalEdgeStyle;rounded=0;orthogonalLoop=1;jettySize=auto;html=1;" parent="1" source="HwkptVnZjSKuyg0B9DK_-7" target="HwkptVnZjSKuyg0B9DK_-10" edge="1">
          <mxGeometry relative="1" as="geometry" />
        </mxCell>
        <mxCell id="HwkptVnZjSKuyg0B9DK_-7" value="get yearly&amp;nbsp;Contribution&lt;br&gt;" style="shape=parallelogram;perimeter=parallelogramPerimeter;whiteSpace=wrap;html=1;fixedSize=1;" parent="1" vertex="1">
          <mxGeometry x="150" y="410" width="120" height="60" as="geometry" />
        </mxCell>
        <mxCell id="HwkptVnZjSKuyg0B9DK_-13" value="no" style="edgeStyle=orthogonalEdgeStyle;rounded=0;orthogonalLoop=1;jettySize=auto;html=1;entryX=1;entryY=0;entryDx=0;entryDy=0;" parent="1" source="HwkptVnZjSKuyg0B9DK_-10" target="HwkptVnZjSKuyg0B9DK_-7" edge="1">
          <mxGeometry relative="1" as="geometry">
            <mxPoint x="280" y="400" as="targetPoint" />
            <Array as="points">
              <mxPoint x="380" y="580" />
              <mxPoint x="380" y="410" />
            </Array>
          </mxGeometry>
        </mxCell>
        <mxCell id="HwkptVnZjSKuyg0B9DK_-15" value="yes" style="edgeStyle=orthogonalEdgeStyle;rounded=0;orthogonalLoop=1;jettySize=auto;html=1;" parent="1" edge="1">
          <mxGeometry relative="1" as="geometry">
            <mxPoint x="211" y="620" as="sourcePoint" />
            <mxPoint x="211" y="710" as="targetPoint" />
            <Array as="points">
              <mxPoint x="211" y="670" />
              <mxPoint x="211" y="670" />
            </Array>
          </mxGeometry>
        </mxCell>
        <mxCell id="HwkptVnZjSKuyg0B9DK_-10" value="is&amp;nbsp; YC a#?" style="rhombus;whiteSpace=wrap;html=1;" parent="1" vertex="1">
          <mxGeometry x="170" y="540" width="80" height="80" as="geometry" />
        </mxCell>
        <mxCell id="HwkptVnZjSKuyg0B9DK_-18" value="" style="edgeStyle=orthogonalEdgeStyle;rounded=0;orthogonalLoop=1;jettySize=auto;html=1;" parent="1" source="HwkptVnZjSKuyg0B9DK_-14" target="HwkptVnZjSKuyg0B9DK_-17" edge="1">
          <mxGeometry relative="1" as="geometry" />
        </mxCell>
        <mxCell id="HwkptVnZjSKuyg0B9DK_-14" value="&amp;nbsp;get AR on Investment as %" style="shape=parallelogram;perimeter=parallelogramPerimeter;whiteSpace=wrap;html=1;fixedSize=1;" parent="1" vertex="1">
          <mxGeometry x="150" y="710" width="120" height="60" as="geometry" />
        </mxCell>
        <mxCell id="HwkptVnZjSKuyg0B9DK_-19" value="no" style="edgeStyle=orthogonalEdgeStyle;rounded=0;orthogonalLoop=1;jettySize=auto;html=1;entryX=1;entryY=0;entryDx=0;entryDy=0;" parent="1" source="HwkptVnZjSKuyg0B9DK_-17" target="HwkptVnZjSKuyg0B9DK_-14" edge="1">
          <mxGeometry relative="1" as="geometry">
            <Array as="points">
              <mxPoint x="380" y="880" />
              <mxPoint x="380" y="710" />
            </Array>
          </mxGeometry>
        </mxCell>
        <mxCell id="HwkptVnZjSKuyg0B9DK_-21" value="yes" style="edgeStyle=orthogonalEdgeStyle;rounded=0;orthogonalLoop=1;jettySize=auto;html=1;" parent="1" source="HwkptVnZjSKuyg0B9DK_-17" target="HwkptVnZjSKuyg0B9DK_-20" edge="1">
          <mxGeometry relative="1" as="geometry" />
        </mxCell>
        <mxCell id="HwkptVnZjSKuyg0B9DK_-17" value="is ari a#?" style="rhombus;whiteSpace=wrap;html=1;" parent="1" vertex="1">
          <mxGeometry x="170" y="840" width="80" height="80" as="geometry" />
        </mxCell>
        <mxCell id="HwkptVnZjSKuyg0B9DK_-23" value="" style="edgeStyle=orthogonalEdgeStyle;rounded=0;orthogonalLoop=1;jettySize=auto;html=1;" parent="1" source="HwkptVnZjSKuyg0B9DK_-20" target="HwkptVnZjSKuyg0B9DK_-22" edge="1">
          <mxGeometry relative="1" as="geometry" />
        </mxCell>
        <mxCell id="HwkptVnZjSKuyg0B9DK_-20" value="get # of years for report" style="shape=parallelogram;perimeter=parallelogramPerimeter;whiteSpace=wrap;html=1;fixedSize=1;" parent="1" vertex="1">
          <mxGeometry x="150" y="1010" width="120" height="60" as="geometry" />
        </mxCell>
        <mxCell id="HwkptVnZjSKuyg0B9DK_-24" value="no" style="edgeStyle=orthogonalEdgeStyle;rounded=0;orthogonalLoop=1;jettySize=auto;html=1;entryX=1;entryY=0;entryDx=0;entryDy=0;" parent="1" source="HwkptVnZjSKuyg0B9DK_-22" target="HwkptVnZjSKuyg0B9DK_-20" edge="1">
          <mxGeometry relative="1" as="geometry">
            <Array as="points">
              <mxPoint x="380" y="1180" />
              <mxPoint x="380" y="1010" />
            </Array>
          </mxGeometry>
        </mxCell>
        <mxCell id="HwkptVnZjSKuyg0B9DK_-28" value="" style="edgeStyle=orthogonalEdgeStyle;rounded=0;orthogonalLoop=1;jettySize=auto;html=1;" parent="1" source="HwkptVnZjSKuyg0B9DK_-22" target="HwkptVnZjSKuyg0B9DK_-27" edge="1">
          <mxGeometry relative="1" as="geometry" />
        </mxCell>
        <mxCell id="HwkptVnZjSKuyg0B9DK_-22" value="is years for report is a#?" style="rhombus;whiteSpace=wrap;html=1;" parent="1" vertex="1">
          <mxGeometry x="170" y="1140" width="80" height="80" as="geometry" />
        </mxCell>
        <mxCell id="HwkptVnZjSKuyg0B9DK_-30" value="" style="edgeStyle=orthogonalEdgeStyle;rounded=0;orthogonalLoop=1;jettySize=auto;html=1;" parent="1" source="HwkptVnZjSKuyg0B9DK_-27" target="HwkptVnZjSKuyg0B9DK_-29" edge="1">
          <mxGeometry relative="1" as="geometry" />
        </mxCell>
        <mxCell id="HwkptVnZjSKuyg0B9DK_-27" value="print balance" style="shape=parallelogram;perimeter=parallelogramPerimeter;whiteSpace=wrap;html=1;fixedSize=1;" parent="1" vertex="1">
          <mxGeometry x="150" y="1310" width="120" height="60" as="geometry" />
        </mxCell>
        <mxCell id="HwkptVnZjSKuyg0B9DK_-32" value="" style="edgeStyle=orthogonalEdgeStyle;rounded=0;orthogonalLoop=1;jettySize=auto;html=1;" parent="1" source="HwkptVnZjSKuyg0B9DK_-29" target="HwkptVnZjSKuyg0B9DK_-31" edge="1">
          <mxGeometry relative="1" as="geometry" />
        </mxCell>
        <mxCell id="HwkptVnZjSKuyg0B9DK_-29" value="calc. next years" style="whiteSpace=wrap;html=1;" parent="1" vertex="1">
          <mxGeometry x="150" y="1390" width="120" height="60" as="geometry" />
        </mxCell>
        <mxCell id="HwkptVnZjSKuyg0B9DK_-33" value="no" style="edgeStyle=orthogonalEdgeStyle;rounded=0;orthogonalLoop=1;jettySize=auto;html=1;entryX=1;entryY=0;entryDx=0;entryDy=0;" parent="1" source="HwkptVnZjSKuyg0B9DK_-31" target="HwkptVnZjSKuyg0B9DK_-27" edge="1">
          <mxGeometry relative="1" as="geometry">
            <Array as="points">
              <mxPoint x="380" y="1540" />
              <mxPoint x="380" y="1310" />
            </Array>
          </mxGeometry>
        </mxCell>
        <mxCell id="HwkptVnZjSKuyg0B9DK_-36" value="yes" style="edgeStyle=orthogonalEdgeStyle;rounded=0;orthogonalLoop=1;jettySize=auto;html=1;" parent="1" source="HwkptVnZjSKuyg0B9DK_-31" target="HwkptVnZjSKuyg0B9DK_-35" edge="1">
          <mxGeometry relative="1" as="geometry" />
        </mxCell>
        <mxCell id="HwkptVnZjSKuyg0B9DK_-31" value="has it printed n+1 times&amp;nbsp;" style="rhombus;whiteSpace=wrap;html=1;" parent="1" vertex="1">
          <mxGeometry x="170" y="1500" width="80" height="80" as="geometry" />
        </mxCell>
        <mxCell id="HwkptVnZjSKuyg0B9DK_-35" value="end" style="ellipse;whiteSpace=wrap;html=1;" parent="1" vertex="1">
          <mxGeometry x="150" y="1660" width="120" height="80" as="geometry" />
        </mxCell>
      </root>
    </mxGraphModel>
  </diagram>
</mxfile>
